<svg width="100" height="100" viewBox="0 0 100 100" fill="none" xmlns="http://www.w3.org/2000/svg">
<path d="M73.7414 15.0304H56.9677C55.5535 14.9943 54.1795 15.4961 53.1305 16.4317C52.0816 17.3673 51.4383 18.6649 51.334 20.0554V79.2749C51.2786 80.0444 51.3822 80.8171 51.6385 81.546C51.8948 82.275 52.2985 82.9451 52.8251 83.5159C53.3518 84.0866 53.9905 84.5461 54.7025 84.8666C55.4146 85.1871 56.1851 85.3618 56.9677 85.3803H73.7414C75.2355 85.3803 76.6685 84.7952 77.725 83.7539C78.7816 82.7126 79.3751 81.3003 79.3751 79.8276V75.3303C79.3751 74.6639 79.1065 74.0249 78.6285 73.5537C78.1504 73.0825 77.502 72.8178 76.8259 72.8178C76.1498 72.8178 75.5014 73.0825 75.0234 73.5537C74.5453 74.0249 74.2767 74.6639 74.2767 75.3303V79.8276C74.2705 79.9656 74.2121 80.0963 74.113 80.1939C74.0139 80.2916 73.8814 80.3491 73.7414 80.3553H56.9677C56.4578 80.3553 56.4324 79.4005 56.4324 79.2749V20.2815C56.5765 20.1438 56.7671 20.0633 56.9677 20.0554H73.7414C73.8814 20.0615 74.0139 20.1191 74.113 20.2167C74.2121 20.3144 74.2705 20.445 74.2767 20.583V50.2053H64.0799C63.4038 50.2053 62.7554 50.47 62.2774 50.9412C61.7993 51.4124 61.5307 52.0515 61.5307 52.7178C61.5307 53.3842 61.7993 54.0232 62.2774 54.4944C62.7554 54.9656 63.4038 55.2303 64.0799 55.2303H74.2767V67.7928C74.2767 68.4591 74.5453 69.0982 75.0234 69.5694C75.5014 70.0406 76.1498 70.3053 76.8259 70.3053C77.502 70.3053 78.1504 70.0406 78.6285 69.5694C79.1065 69.0982 79.3751 68.4591 79.3751 67.7928V20.583C79.3751 19.1104 78.7816 17.698 77.725 16.6567C76.6685 15.6154 75.2355 15.0304 73.7414 15.0304Z" fill="#E97FBE"/>
<path d="M46.2356 50.2053V45.1804C46.2356 44.514 45.967 43.8749 45.4889 43.4038C45.0109 42.9326 44.3625 42.6679 43.6864 42.6679H30.9404V30.1054C30.9461 28.3849 31.5488 26.7181 32.6484 25.3819C34.051 23.7282 35.6713 22.2664 37.4664 21.0353L38.588 20.3066V37.6429C38.588 38.3092 38.8566 38.9483 39.3347 39.4195C39.8127 39.8907 40.4611 40.1554 41.1372 40.1554C41.8133 40.1554 42.4617 39.8907 42.9398 39.4195C43.4178 38.9483 43.6864 38.3092 43.6864 37.6429V19.8795C43.6916 19.0288 43.4707 18.1916 43.0459 17.4511C42.621 16.7106 42.0069 16.0926 41.2647 15.6585C40.5594 15.2572 39.7593 15.0459 38.9449 15.0459C38.1305 15.0459 37.3304 15.2572 36.6251 15.6585C35.9623 16.0103 35.2995 16.4374 34.6113 16.8897C32.4163 18.3696 30.4427 20.1457 28.7481 22.1659C26.8605 24.3922 25.8313 27.2041 25.842 30.1054V42.6679C25.166 42.6679 24.5176 42.9326 24.0395 43.4038C23.5614 43.8749 23.2928 44.514 23.2928 45.1804V50.2053C22.6168 50.2053 21.9684 50.4701 21.4903 50.9412C21.0122 51.4124 20.7437 52.0515 20.7437 52.7178V60.2553C20.7437 60.9217 21.0122 61.5607 21.4903 62.0319C21.9684 62.5031 22.6168 62.7678 23.2928 62.7678C23.9689 62.7678 24.6173 62.5031 25.0954 62.0319C25.5735 61.5607 25.842 60.9217 25.842 60.2553V55.2303H43.6864V79.5513C43.6864 79.7645 43.6005 79.969 43.4475 80.1198C43.2945 80.2706 43.087 80.3553 42.8707 80.3553H26.6578C26.4414 80.3553 26.2339 80.2706 26.081 80.1198C25.928 79.969 25.842 79.7645 25.842 79.5513V67.7928C25.842 67.1265 25.5735 66.4874 25.0954 66.0162C24.6173 65.545 23.9689 65.2803 23.2928 65.2803C22.6168 65.2803 21.9684 65.545 21.4903 66.0162C21.0122 66.4874 20.7437 67.1265 20.7437 67.7928V79.5513C20.7437 81.0972 21.3667 82.5799 22.4759 83.673C23.585 84.7662 25.0893 85.3803 26.6578 85.3803H42.8707C44.4392 85.3803 45.9435 84.7662 47.0526 83.673C48.1617 82.5799 48.7848 81.0972 48.7848 79.5513V52.7178C48.7848 52.0515 48.5162 51.4124 48.0381 50.9412C47.5601 50.4701 46.9117 50.2053 46.2356 50.2053ZM28.3912 50.2053V47.6928H41.1372V50.2053H28.3912Z" fill="#E97FBE"/>
</svg>
