<svg width="100" height="100" viewBox="0 0 100 100" fill="none" xmlns="http://www.w3.org/2000/svg">
<path d="M60.5484 49.8832L61.1751 50.3792L61.9732 50.4198C67.3522 50.6929 72.3478 52.7437 75.9573 56.0711C79.5562 59.3887 81.4933 63.703 81.5 68.1115C81.5 68.1125 81.4998 68.1145 81.499 68.1179C81.4981 68.1219 81.4958 68.1302 81.4899 68.1426C81.4784 68.1667 81.4501 68.213 81.3865 68.2683L83.0281 70.1538L81.3865 68.2683C81.2512 68.3861 81.0021 68.5 80.6818 68.5H60.7791C60.4906 68.4981 60.2564 68.4032 60.1149 68.2942L60.1149 68.2942L60.1043 68.2862L39.0604 52.2553L35.0455 49.1968V54.244V68.111C35.0455 68.1119 35.0454 68.1139 35.0445 68.1179C35.0436 68.1219 35.0412 68.1302 35.0353 68.1426C35.0239 68.1667 34.9955 68.213 34.932 68.2683C34.7967 68.3861 34.5475 68.5 34.2273 68.5H24.2727C23.9525 68.5 23.7033 68.3861 23.568 68.2683C23.5045 68.213 23.4761 68.1667 23.4647 68.1426C23.4588 68.1302 23.4564 68.1219 23.4555 68.1179C23.4546 68.1139 23.4545 68.1119 23.4545 68.111V46.8714V45.1869L21.8933 44.5543C19.3415 43.5204 17.2268 41.899 15.7594 39.9196C14.2989 37.9496 13.5323 35.6995 13.5 33.4275C13.5058 29.1837 15.8055 26.3114 18.4168 24.3681C19.7254 23.3942 21.064 22.6961 22.1124 22.2334C22.6332 22.0035 23.0732 21.8356 23.3895 21.7236C23.7003 21.6136 23.8804 21.5614 23.8906 21.5585L23.891 21.5583L23.9068 21.554L23.9225 21.5494C24.1056 21.4961 24.3109 21.4848 24.5083 21.521C24.7056 21.5571 24.857 21.6332 24.9555 21.711C24.9556 21.7111 24.9557 21.7112 24.9558 21.7113L60.5484 49.8832Z" stroke="#E97FBE" stroke-width="5"/>
</svg>
