<svg width="100" height="100" viewBox="0 0 100 100" fill="none" xmlns="http://www.w3.org/2000/svg">
<path d="M79.8105 86.4132L70.6474 52.8153L76.7561 31.4348C77.1613 30.0767 77.2755 28.6485 77.0913 27.2433C76.9071 25.838 76.4286 24.4875 75.6871 23.2797C75.3077 22.7693 74.889 22.2894 74.4348 21.8442V9.62674H68.3261V17.3848C65.738 16.278 62.9081 15.8572 60.1099 16.1631C56.1679 16.6132 52.549 18.5593 50 21.5998C47.451 18.5593 43.8321 16.6132 39.8901 16.1631C37.0919 15.8572 34.262 16.278 31.6739 17.3848V10.0544C31.6739 9.24429 31.3521 8.4674 30.7793 7.8946C30.2065 7.3218 29.4296 7 28.6195 7C27.8095 7 27.0326 7.3218 26.4598 7.8946C25.887 8.4674 25.5652 9.24429 25.5652 10.0544V21.8442C25.1174 22.3446 24.7186 22.8866 24.374 23.463C23.6325 24.6707 23.154 26.0213 22.9698 27.4265C22.7856 28.8317 22.8998 30.26 23.3049 31.6181L29.4137 52.9986L25.5652 67.2929C25.3855 68.0642 25.5124 68.8751 25.9191 69.5547C26.3258 70.2342 26.9806 70.7291 27.7453 70.9352C28.5099 71.1412 29.3247 71.0422 30.0178 70.659C30.7108 70.2758 31.228 69.6384 31.4601 68.8812L34.881 55.8697H56.2614C57.0715 55.8697 57.8484 55.5479 58.4212 54.9751C58.994 54.4023 59.3158 53.6254 59.3158 52.8153C59.3158 52.0052 58.994 51.2284 58.4212 50.6555C57.8484 50.0827 57.0715 49.761 56.2614 49.761H34.7282L29.1999 29.9382C29.0296 29.4045 28.9716 28.8414 29.0294 28.2843C29.0872 27.7271 29.2596 27.1879 29.5358 26.7006C30.5853 25.1573 32.0357 23.9295 33.731 23.1491C35.4262 22.3687 37.3022 22.0654 39.157 22.2718C40.9825 22.486 42.7014 23.2442 44.0904 24.448C45.4793 25.6517 46.4742 27.2454 46.9457 29.0219C46.9457 29.832 47.2674 30.6088 47.8403 31.1816C48.4131 31.7544 49.1899 32.0762 50 32.0762C50.8101 32.0762 51.587 31.7544 52.1598 31.1816C52.7326 30.6088 53.0544 29.832 53.0544 29.0219C53.5258 27.2454 54.5207 25.6517 55.9096 24.448C57.2986 23.2442 59.0175 22.486 60.843 22.2718C62.6975 22.0688 64.5723 22.3736 66.2669 23.1537C67.9616 23.9338 69.4124 25.1598 70.4642 26.7006C70.7404 27.1879 70.9128 27.7271 70.9706 28.2843C71.0284 28.8414 70.9704 29.4045 70.8002 29.9382L64.5082 51.9906C64.3626 52.5204 64.3626 53.0797 64.5082 53.6094L73.488 86.4132H26.512L28.8028 78.0443C28.9825 77.273 28.8556 76.4621 28.4488 75.7825C28.0421 75.103 27.3874 74.6081 26.6227 74.402C25.858 74.196 25.0432 74.2951 24.3502 74.6782C23.6571 75.0614 23.14 75.6988 22.9079 76.456L20.1895 86.4132C19.9807 87.1287 19.9439 87.8834 20.0819 88.6158C20.2198 89.3482 20.5288 90.0377 20.9836 90.6282C21.4389 91.2157 22.0221 91.6917 22.689 92.0198C23.3559 92.348 24.0889 92.5197 24.8321 92.5219H75.1679C75.9111 92.5197 76.6441 92.348 77.311 92.0198C77.9779 91.6917 78.5611 91.2157 79.0164 90.6282C79.4712 90.0377 79.7802 89.3482 79.9182 88.6158C80.0561 87.8834 80.0193 87.1287 79.8105 86.4132Z" fill="#E97FBE"/>
</svg>
