<svg width="75" height="63" viewBox="0 0 75 63" fill="none" xmlns="http://www.w3.org/2000/svg">
<path d="M74.5 0L74.5 15.875C70.25 15.875 66.625 17.5 63.625 20.75C60.625 24 59.125 27.8333 59.125 32.25L73.5 32.25C74.1667 32.25 74.5 32.5833 74.5 33.25L74.5 62C74.5 62.6667 74.1667 63 73.5 63L44.5 63C43.8333 63 43.5 62.6667 43.5 62L43.5 32.25C43.5 26.25 44.9583 20.7917 47.875 15.875C50.7917 10.9583 54.5833 7.08333 59.25 4.25C63.9167 1.41667 69 -4.80825e-07 74.5 0Z" fill="#E97FBE"/>
<path d="M31 -3.80289e-06L31 15.875C26.75 15.875 23.125 17.5 20.125 20.75C17.125 24 15.625 27.8333 15.625 32.25L30 32.25C30.6667 32.25 31 32.5833 31 33.25L31 62C31 62.6667 30.6667 63 30 63L1 63C0.333336 63 2.91409e-08 62.6667 8.74228e-08 62L2.68825e-06 32.25C3.21279e-06 26.25 1.45834 20.7917 4.375 15.875C7.29167 10.9583 11.0833 7.08333 15.75 4.24999C20.4167 1.41666 25.5 -4.28372e-06 31 -3.80289e-06Z" fill="#E97FBE"/>
</svg>
